<svg xmlns="http://www.w3.org/2000/svg" viewBox="0 0 26 26">
    <style>
        path {
            fill: currentColor;
        }
    </style>
    <path d="M13 4.88993C13.1978 4.88993 13.3911 4.94858 13.5556 5.05846C13.72 5.16834 13.8482 5.32452 13.9239 5.50725C13.9996 5.68997 14.0194 5.89104 13.9808 6.08502C13.9422 6.279 13.847 6.45719 13.7071 6.59704C13.5673 6.73689 13.3891 6.83213 13.1951 6.87072C13.0011 6.9093 12.8001 6.8895 12.6173 6.81381C12.4346 6.73812 12.2784 6.60995 12.1685 6.4455C12.0587 6.28105 12 6.08771 12 5.88993C12 5.62472 12.1054 5.37036 12.2929 5.18282C12.4804 4.99529 12.7348 4.88993 13 4.88993Z" />
    <path fill-rule="evenodd" clip-rule="evenodd" d="M12.95 1.42993C6.59874 1.42993 1.45001 6.57866 1.45001 12.9299C1.45001 19.2812 6.59874 24.4299 12.95 24.4299C19.3013 24.4299 24.45 19.2812 24.45 12.9299C24.45 6.57866 19.3013 1.42993 12.95 1.42993ZM0.450012 12.9299C0.450012 6.02637 6.04645 0.429932 12.95 0.429932C19.8536 0.429932 25.45 6.02637 25.45 12.9299C25.45 19.8335 19.8536 25.4299 12.95 25.4299C6.04645 25.4299 0.450012 19.8335 0.450012 12.9299Z" />
    <path fill-rule="evenodd" clip-rule="evenodd" d="M12.93 10.8899H10.43V9.88993H13.93L13.9239 17.8299H12.93V10.8899Z" />
    <path fill-rule="evenodd" clip-rule="evenodd" d="M16.96 19.0099H9.96001V17.8299H16.96V19.0099Z" />
</svg>
