<svg viewBox="0 0 36 36"
  xmlns="http://www.w3.org/2000/svg">
  <path d="M18.066 7.3872C18.3271 7.3872 18.5823 7.46462 18.7994 7.60966C19.0164 7.7547 19.1856 7.96086 19.2855 8.20206C19.3854 8.44326 19.4116 8.70867 19.3606 8.96472C19.3097 9.22078 19.184 9.45598 18.9994 9.64058C18.8148 9.82519 18.5796 9.95091 18.3235 10.0018C18.0675 10.0528 17.8021 10.0266 17.5609 9.92672C17.3197 9.82681 17.1135 9.65763 16.9685 9.44055C16.8234 9.22348 16.746 8.96827 16.746 8.7072C16.746 8.35712 16.8851 8.02137 17.1326 7.77382C17.3802 7.52627 17.7159 7.3872 18.066 7.3872Z" />
  <path fill-rule="evenodd" clip-rule="evenodd" d="M18 2.82C9.61632 2.82 2.82 9.61632 2.82 18C2.82 26.3837 9.61632 33.18 18 33.18C26.3837 33.18 33.18 26.3837 33.18 18C33.18 9.61632 26.3837 2.82 18 2.82ZM1.5 18C1.5 8.8873 8.8873 1.5 18 1.5C27.1127 1.5 34.5 8.8873 34.5 18C34.5 27.1127 27.1127 34.5 18 34.5C8.8873 34.5 1.5 27.1127 1.5 18Z" />
  <path fill-rule="evenodd" clip-rule="evenodd" d="M17.9736 15.3072H14.6736V13.9872H19.2936L19.2855 24.468H17.9736V15.3072Z" />
  <path fill-rule="evenodd" clip-rule="evenodd" d="M23.2932 26.0256H14.0532V24.468H23.2932V26.0256Z" />
</svg>
