<svg width="24" height="24" viewBox="0 0 24 24" fill="none" xmlns="http://www.w3.org/2000/svg">
<path d="M24 22.1818L16.4467 14.5455C17.665 12.9697 18.2741 11.1515 18.2741 9.09091C18.2741 4.12121 14.132 0 9.13706 0C4.14213 0 3.63074e-09 4.12121 3.63074e-09 9.09091C3.63074e-09 14.0606 4.14213 18.1818 9.13706 18.1818C11.2081 18.1818 13.1574 17.4545 14.6193 16.3636L22.2944 24L24 22.1818ZM2.43655 9.09091C2.43655 5.45455 5.48223 2.42424 9.13706 2.42424C12.7919 2.42424 15.8376 5.45455 15.8376 9.09091C15.8376 12.7273 12.7919 15.7576 9.13706 15.7576C5.48223 15.7576 2.43655 12.7273 2.43655 9.09091Z" fill="black"/>
</svg>