
<svg width="25" height="25" viewBox="0 0 34 37" fill="none" xmlns="http://www.w3.org/2000/svg">
<rect width="38" height="36" transform="translate(-3.05176e-05 0.0625)" fill="#E3F7FF"/>
<path d="M26 25.6989L20.335 19.9716C21.2487 18.7898 21.7056 17.4261 21.7056 15.8807C21.7056 12.1534 18.599 9.0625 14.8528 9.0625C11.1066 9.0625 7.99997 12.1534 7.99997 15.8807C7.99997 19.608 11.1066 22.6989 14.8528 22.6989C16.4061 22.6989 17.868 22.1534 18.9644 21.3352L24.7208 27.0625L26 25.6989ZM9.82738 15.8807C9.82738 13.1534 12.1116 10.8807 14.8528 10.8807C17.5939 10.8807 19.8781 13.1534 19.8781 15.8807C19.8781 18.608 17.5939 20.8807 14.8528 20.8807C12.1116 20.8807 9.82738 18.608 9.82738 15.8807Z" fill="black"/>
</svg>