<svg viewBox="0 0 36 36" xmlns="http://www.w3.org/2000/svg">
<path d="M10.2857 36H0V0H10.2857V36ZM2.57143 33H7.71429V3H2.57143V33ZM23.1429 36H12.8571V0H23.1429V36ZM15.4286 33H20.5714V3H15.4286V33ZM36 36H25.7143V0H36V36ZM28.2857 33H33.4286V3H28.2857V33Z"/>
<path d="M4.95652 30.371C3.91304 30.371 3 29.4677 3 28.4355C3 27.4032 3.91304 26.5 4.95652 26.5C6 26.5 6.91304 27.4032 6.91304 28.4355C6.91304 29.4677 6 30.371 4.95652 30.371ZM18 30.5C16.9565 30.5 16.0435 29.5968 16.0435 28.5645C16.0435 27.5323 16.9565 26.629 18 26.629C19.0435 26.629 19.9565 27.5323 19.9565 28.5645C19.9565 29.5968 19.0435 30.5 18 30.5ZM31.0435 30.5C30 30.5 29.087 29.5968 29.087 28.5645C29.087 27.5323 30 26.629 31.0435 26.629C32.087 26.629 33 27.5323 33 28.5645C33 29.5968 32.087 30.5 31.0435 30.5Z"/>
</svg>
