<svg viewBox="0 0 66 66" fill="none" xmlns="http://www.w3.org/2000/svg">
<path d="M33 0C14.85 0 0 14.85 0 33C0 51.15 14.85 66 33 66C51.15 66 66 51.15 66 33C66 14.85 51.15 0 33 0ZM36.85 49.5H30.8V43.725H36.85V49.5ZM40.7 32.175L37.4 36.575C36.85 37.125 36.575 37.95 36.575 38.775V39.6H30.8V38.5C30.8 36.575 31.35 35.475 32.45 33.825L35.75 29.7C36.575 28.875 37.125 27.775 37.125 26.675C37.125 24.475 35.75 23.1 33.55 23.1C31.35 23.1 29.975 24.75 29.975 26.675H24.475C24.475 21.175 28.6 17.875 33.825 17.875C38.775 17.875 43.175 21.175 43.175 26.675C42.9 28.875 42.075 30.525 40.7 32.175Z" fill="#6A6A6A"/>
</svg>
